Coordinates
version=1
nRows=9
nColumns=36
inDegrees=yes

Units are S.I. units (second, meters, Newtons, ...)
If the header above contains a line with 'inDegrees', this indicates whether rotational values are in degrees (yes) or radians (no).

endheader
time	pelvis_tilt	pelvis_list	pelvis_rotation	pelvis_tx	pelvis_ty	pelvis_tz	hip_flexion_r	hip_adduction_r	hip_rotation_r	knee_angle_r	knee_angle_r_beta	ankle_angle_r	subtalar_angle_r	mtp_angle_r	hip_flexion_l	hip_adduction_l	hip_rotation_l	knee_angle_l	knee_angle_l_beta	ankle_angle_l	subtalar_angle_l	mtp_angle_l	lumbar_extension	lumbar_bending	lumbar_rotation	arm_flex_r	arm_add_r	arm_rot_r	elbow_flex_r	pro_sup_r	arm_flex_l	arm_add_l	arm_rot_l	elbow_flex_l	pro_sup_l
      1.15000000	    -12.79386446	      0.39516640	     -4.52449689	     -0.41618139	      0.66113231	     -0.57111435	     76.33959450	      7.13414031	      2.25014413	     85.67419840	      1.49529685	     23.14230966	    -10.75690725	     -7.50000971	     75.68415008	     -9.91176323	      2.90349312	     87.47253628	      1.52668376	     24.46719886	     -1.50593885	     -7.50000971	    -41.38643856	      2.35970766	     -0.11625049	      7.82218871	    -12.22323796	     -9.12952592	     91.03348103	    108.41034539	     24.79073750	    -24.92694242	      1.41153333	     92.96570877	    105.24319323
      1.16000000	    -13.77774304	      0.29347013	     -5.18206036	     -0.41411396	      0.65002911	     -0.57289244	     78.62473072	      7.44725100	      2.06540128	     87.59202534	      1.52876924	     23.68629825	    -10.39619422	     -7.50000957	     77.77734327	    -10.63853764	      2.89732762	     89.56395169	      1.56318585	     25.67841190	     -1.75577053	     -7.50000957	    -41.99340313	      2.16111368	      0.46594463	     14.41075368	    -13.59349371	     -5.07983078	     90.95761424	    108.38799715	     30.11325562	    -23.90285758	      5.00809585	     93.49137039	    105.58577925
      1.17000000	    -14.37138442	      0.25155350	     -5.73772156	     -0.41205732	      0.64043060	     -0.57446077	     80.30294506	      7.67050860	      1.95377110	     89.31341965	      1.55881324	     25.00095530	     -9.15724154	     -7.50000918	     79.49871824	    -11.25712335	      3.00336805	     91.64623858	      1.59952861	     26.86267665	     -0.85045345	     -7.50000918	    -42.72144498	      1.88008044	      0.69103675	     21.11076272	    -14.45508441	     -1.39553780	     91.25103042	    108.25536615	     35.63830324	    -23.37608861	      8.97312004	     93.87834474	    106.27876362
      1.18000000	    -14.81500009	      0.11425233	     -6.06314550	     -0.40989813	      0.63237140	     -0.57617845	     81.56657028	      7.87136941	      1.85310402	     90.71909954	      1.58334698	     25.74729126	     -8.93544220	     -7.50000900	     81.05007533	    -11.61964333	      3.32074935	     93.54472182	      1.63266339	     27.31458357	     -0.53366291	     -7.50000900	    -43.54738296	      1.83617421	      0.66544012	     27.78509105	    -15.03555142	      2.03486381	     92.17862958	    108.40690536	     41.19098694	    -23.10460520	     12.78292339	     94.81931040	    106.72696474
      1.19000000	    -15.31789068	     -0.00090445	     -6.22079747	     -0.40783556	      0.62494819	     -0.57780222	     82.84376679	      7.98545100	      1.80718454	     92.06106055	      1.60676862	     26.34288956	     -8.80214061	     -7.50000890	     82.58981822	    -11.83285464	      3.62694923	     95.25212570	      1.66246321	     27.65260470	     -0.23963176	     -7.50000890	    -44.15046687	      1.87172869	      0.51399619	     34.29543687	    -15.20807246	      4.83936193	     93.45369093	    108.63367031	     46.89525450	    -22.82667863	     16.41918087	     96.13657349	    107.12509931
      1.20000000	    -15.79195477	      0.02387956	     -6.25719058	     -0.40597901	      0.61815585	     -0.57912871	     84.13027239	      7.95827457	      1.87265051	     93.41047399	      1.63032033	     26.79759131	     -8.47578083	     -7.50000880	     83.89361298	    -11.97038515	      3.63658960	     96.65824512	      1.68700463	     28.12195018	      0.06609003	     -7.50000880	    -44.55369529	      1.86445445	      0.30761752	     40.64049572	    -14.96948427	      7.01803544	     94.63146081	    108.82947133	     52.82133730	    -22.49149662	     20.02868063	     97.27523938	    107.47234283
      1.21000000	    -16.13384252	      0.20565728	     -6.17605461	     -0.40407198	      0.61231046	     -0.58025876	     85.21057069	      7.81004411	      2.10576871	     94.70178225	      1.65285791	     27.23420169	     -8.14721348	     -7.50000870	     84.79376387	    -11.97911426	      3.36270236	     97.74871577	      1.70603693	     28.75182454	      0.23019365	     -7.50000870	    -44.87422785	      1.70896176	      0.04531896	     46.76958111	    -14.48062692	      8.59290099	     95.66516794	    108.95265153	     58.76800484	    -21.99377900	     23.47137668	     98.43062425	    107.76967887
      1.22000000	    -16.25537999	      0.51730590	     -6.07765521	     -0.40178238	      0.60773529	     -0.58107797	     85.84521662	      7.76506998	      2.56816027	     95.79715371	      1.67197575	     27.90056899	     -8.00415710	     -7.50000858	     85.17020302	    -11.96509648	      2.87497342	     98.58340316	      1.72060497	     29.50362437	      0.37128738	     -7.50000858	    -45.17615863	      1.40579997	     -0.30630558	     52.61220871	    -13.71264244	      9.68317845	     96.48253955	    108.96981486	     64.50967857	    -21.41265015	     26.51031550	     99.48621192	    107.97753809
      1.23000000	    -16.32044653	      0.76307030	     -5.99083171	     -0.39910304	      0.60405639	     -0.58154278	     86.22386821	      7.87645468	      3.02511058	     96.72588561	      1.68818518	     28.61743890	     -8.11004048	     -7.50000844	     85.37327170	    -12.05241404	      2.41312499	     99.31142109	      1.73331128	     30.25468378	      0.60509498	     -7.50000844	    -45.29766015	      1.14596175	     -0.70849704	     58.14268198	    -12.64174557	     10.40695029	     97.09588230	    108.87123502	     69.77321096	    -20.84699189	     28.84056630	    100.62546220	    108.08811030
